<svg xmlns="http://www.w3.org/2000/svg" width="106.653" height="86.011" viewBox="0 0 106.653 86.011">
  <path id="Caminho_210" data-name="Caminho 210" d="M-380.507,94.011h-18.924a5.167,5.167,0,0,1-5.16-5.162V75.088a5.166,5.166,0,0,1,5.16-5.16h18.924a5.166,5.166,0,0,1,5.16,5.16V88.85A5.167,5.167,0,0,1-380.507,94.011Zm-77.409,0H-476.84A5.167,5.167,0,0,1-482,88.85V75.088a5.166,5.166,0,0,1,5.16-5.16h18.924a5.166,5.166,0,0,1,5.16,5.16V88.85A5.167,5.167,0,0,1-457.917,94.011Zm77.409-30.964h-18.924a5.167,5.167,0,0,1-5.16-5.162V44.124a5.166,5.166,0,0,1,5.16-5.16h18.924a5.166,5.166,0,0,1,5.16,5.16V57.886A5.167,5.167,0,0,1-380.507,63.048Zm-77.409,0H-476.84A5.167,5.167,0,0,1-482,57.886V44.124a5.166,5.166,0,0,1,5.16-5.16h18.924a5.166,5.166,0,0,1,5.16,5.16V57.886A5.167,5.167,0,0,1-457.917,63.048Zm29.4-11.621a5.125,5.125,0,0,1-3.1-1.039l-24.307-18.3H-476.84A5.167,5.167,0,0,1-482,26.922V13.16A5.166,5.166,0,0,1-476.84,8H-445.6l12.605,10.238a6.9,6.9,0,0,0,4.338,1.54,6.9,6.9,0,0,0,4.338-1.54L-411.711,8h31.2a5.166,5.166,0,0,1,5.16,5.16V26.922a5.167,5.167,0,0,1-5.16,5.162h-20.6l-24.31,18.3A5.118,5.118,0,0,1-428.521,51.427Z" transform="translate(482 -8)" fill="#1e1e24"/>
</svg>
